<?xml version="1.0" encoding="UTF-8" standalone="no"?>
<!-- Created with Inkscape (http://www.inkscape.org/) -->

<svg
   xmlns:dc="http://purl.org/dc/elements/1.1/"
   xmlns:cc="http://creativecommons.org/ns#"
   xmlns:rdf="http://www.w3.org/1999/02/22-rdf-syntax-ns#"
   xmlns:svg="http://www.w3.org/2000/svg"
   xmlns="http://www.w3.org/2000/svg"
   xmlns:sodipodi="http://sodipodi.sourceforge.net/DTD/sodipodi-0.dtd"
   xmlns:inkscape="http://www.inkscape.org/namespaces/inkscape"
   id="svg2985"
   version="1.1"
   inkscape:version="0.48.4 r9939"
   width="500"
   height="500"
   xml:space="preserve"
   sodipodi:docname="icon.ai"
   inkscape:export-filename="E:\Dropbox\hackathon\App\icons\iPhone Spotlight iOS 5, 6.png"
   inkscape:export-xdpi="5.2199998"
   inkscape:export-ydpi="5.2199998"><metadata
     id="metadata2991"><rdf:RDF><cc:Work
         rdf:about=""><dc:format>image/svg+xml</dc:format><dc:type
           rdf:resource="http://purl.org/dc/dcmitype/StillImage" /><dc:title></dc:title></cc:Work></rdf:RDF></metadata><defs
     id="defs2989"><clipPath
       clipPathUnits="userSpaceOnUse"
       id="clipPath3007"><path
         d="M 0,400 400,400 400,0 0,0 0,400 z"
         id="path3009" /></clipPath><clipPath
       clipPathUnits="userSpaceOnUse"
       id="clipPath3023"><path
         d="M 0,400 400,400 400,0 0,0 0,400 z"
         id="path3025" /></clipPath></defs><sodipodi:namedview
     pagecolor="#ffffff"
     bordercolor="#666666"
     borderopacity="1"
     objecttolerance="10"
     gridtolerance="10"
     guidetolerance="10"
     inkscape:pageopacity="0"
     inkscape:pageshadow="2"
     inkscape:window-width="640"
     inkscape:window-height="480"
     id="namedview2987"
     showgrid="false"
     inkscape:zoom="0.472"
     inkscape:cx="250"
     inkscape:cy="250"
     inkscape:window-x="4414"
     inkscape:window-y="214"
     inkscape:window-maximized="0"
     inkscape:current-layer="g2993" /><g
     id="g2993"
     inkscape:groupmode="layer"
     inkscape:label="icon"
     transform="matrix(1.25,0,0,-1.25,0,500)"><path
       d="m 140.332,225.332 -25.333,0 0,98.667 25.333,0 0,-98.667 z"
       style="fill:#91d6e0;fill-opacity:1;fill-rule:nonzero;stroke:none"
       id="path2995" /><path
       d="m 276.332,225.332 -25.333,0 0,98.667 25.333,0 0,-98.667 z"
       style="fill:#91d6e0;fill-opacity:1;fill-rule:nonzero;stroke:none"
       id="path2997" /><g
       id="g2999"
       transform="translate(245.0615,364.665)"><path
         d="m 0,0 0,-25.333 -98.666,0 L -98.667,0 0,0 z"
         style="fill:#91d6e0;fill-opacity:1;fill-rule:nonzero;stroke:none"
         id="path3001" /></g><g
       id="g3003"><g
         id="g3005"
         clip-path="url(#clipPath3007)"><g
           id="g3011"
           transform="translate(140.332,323.9985)"><path
             d="m 0,0 c 0,9.001 -0.708,15.333 6.063,15.333 6.771,0 36.562,25.334 0,25.334 C -24.999,40.667 -25.333,16.332 -25.333,0 -25.333,-16.332 0,-9.001 0,0"
             style="fill:#91d6e0;fill-opacity:1;fill-rule:nonzero;stroke:none"
             id="path3013" /></g><g
           id="g3015"
           transform="translate(250.999,324.0635)"><path
             d="m 0,0 c 0,9.001 0.708,15.333 -6.063,15.333 -6.771,0 -36.562,25.334 0,25.334 C 24.999,40.667 25.333,16.332 25.333,0 25.333,-16.332 0,-9.001 0,0"
             style="fill:#91d6e0;fill-opacity:1;fill-rule:nonzero;stroke:none"
             id="path3017" /></g></g></g><g
       id="g3019"><g
         id="g3021"
         clip-path="url(#clipPath3023)"><g
           id="g3027"
           transform="translate(195,286.6665)"><path
             d="m 0,0 c -61.5,-31.167 -134,-26.667 -134,-26.667 0,0 1,-198 134,-235.333 135.5,37.833 137.334,235.333 137.334,235.333 0,0 -72.084,-7.75 -137.334,26.667"
             style="fill:#43c5e5;fill-opacity:1;fill-rule:nonzero;stroke:none"
             id="path3029" /></g><g
           id="g3031"
           transform="translate(194.0615,286.6665)"><path
             d="m 0,0 0,-262 c 135.5,37.833 137.334,235.333 137.334,235.333 0,0 -72.084,-7.75 -137.334,26.667"
             style="fill:#1fb7bf;fill-opacity:1;fill-rule:nonzero;stroke:none"
             id="path3033" /></g><g
           id="g3035"
           transform="translate(223.0264,179.5361)"><path
             d="m 0,0 c 0,-15.997 -12.968,-28.967 -28.966,-28.967 -7.022,0 -13.46,2.499 -18.473,6.656 -6.409,5.313 -10.491,13.336 -10.491,22.311 0,15.996 12.968,28.964 28.964,28.964 C -12.968,28.964 0,15.996 0,0"
             style="fill:#ffffff;fill-opacity:1;fill-rule:nonzero;stroke:none"
             id="path3037" /></g><g
           id="g3039"
           transform="translate(209.4336,175.1777)"><path
             d="m 0,0 -30.929,0 -5.339,-64.803 41.79,0 L 0,0 z"
             style="fill:#ffffff;fill-opacity:1;fill-rule:nonzero;stroke:none"
             id="path3041" /></g></g></g></g></svg>